HIERARCHY
ROOT Hips
{
	OFFSET -3.958830 18.904000 13.208200
	CHANNELS 6 Xposition Yposition Zposition Zrotation Yrotation Xrotation 
	JOINT LHipJoint
	{
		OFFSET 0.000000 0.000000 0.000000
		CHANNELS 3 Zrotation Yrotation Xrotation
		JOINT LeftUpLeg
		{
			OFFSET 1.800000 -1.400000 0.085000
			CHANNELS 3 Zrotation Yrotation Xrotation
			JOINT LeftLeg
			{
				OFFSET 2.215000 -6.000000 0.000000
				CHANNELS 3 Zrotation Yrotation Xrotation
				JOINT LeftFoot
				{
					OFFSET 2.500000 -6.900000 0.000000
					CHANNELS 3 Zrotation Yrotation Xrotation
					JOINT LeftToeBase
					{
						OFFSET 0.200000 -0.500000 1.950000
						CHANNELS 3 Zrotation Yrotation Xrotation
						End Site
						{
							OFFSET 0.000000 0.000000 0.000000
						}
					}
				}
			}
		}
	}
	JOINT RHipJoint
	{
		OFFSET 0.000000 0.000000 0.000000
		CHANNELS 3 Zrotation Yrotation Xrotation
		JOINT RightUpLeg
		{
			OFFSET -1.800000 -1.400000 0.085000
			CHANNELS 3 Zrotation Yrotation Xrotation
			JOINT RightLeg
			{
				OFFSET -2.215000 -6.000000 0.000000
				CHANNELS 3 Zrotation Yrotation Xrotation
				JOINT RightFoot
				{
					OFFSET -2.500000 -6.900000 0.000000
					CHANNELS 3 Zrotation Yrotation Xrotation
					JOINT RightToeBase
					{
						OFFSET -0.200000 -0.500000 1.950000
						CHANNELS 3 Zrotation Yrotation Xrotation
						End Site
						{
							OFFSET 0.000000 0.000000 0.000000
						}
					}
				}
			}
		}
	}
	JOINT LowerBack
	{
		OFFSET 0.000000 0.000000 0.000000
		CHANNELS 3 Zrotation Yrotation Xrotation
		JOINT Spine
		{
			OFFSET -0.087000 1.940000 -0.288900
			CHANNELS 3 Zrotation Yrotation Xrotation
			JOINT Spine1
			{
				OFFSET 0.000000 1.950000 0.060000
				CHANNELS 3 Zrotation Yrotation Xrotation
				JOINT Neck
				{
					OFFSET 0.000000 0.000000 0.000000
					CHANNELS 3 Zrotation Yrotation Xrotation
					JOINT Neck1
					{
						OFFSET 0.000000 1.600000 0.340000
						CHANNELS 3 Zrotation Yrotation Xrotation
						JOINT Head
						{
							OFFSET 0.000000 1.667000 -0.240000
							CHANNELS 3 Zrotation Yrotation Xrotation
							End Site
							{
								OFFSET 0.000000 0.000000 0.000000
							}
						}
					}
				}
				JOINT LeftShoulder
				{
					OFFSET 0.000000 0.000000 0.000000
					CHANNELS 3 Zrotation Yrotation Xrotation
					JOINT LeftArm
					{
						OFFSET 2.700000 1.550000 -0.730000
						CHANNELS 3 Zrotation Yrotation Xrotation
						JOINT LeftForeArm
						{
							OFFSET 5.450000 0.000000 0.000000
							CHANNELS 3 Zrotation Yrotation Xrotation
							JOINT LeftHand
							{
								OFFSET 3.450000 0.000000 0.000000
								CHANNELS 3 Zrotation Yrotation Xrotation
								JOINT LeftHandIndex1
								{
									OFFSET 0.750000 0.000000 0.000000
									CHANNELS 3 Zrotation Yrotation Xrotation
									End Site
									{
										OFFSET 0.000000 0.000000 0.000000
									}
								}
							}
						}
					}
				}
				JOINT RightShoulder
				{
					OFFSET 0.000000 0.000000 0.000000
					CHANNELS 3 Zrotation Yrotation Xrotation
					JOINT RightArm
					{
						OFFSET -2.700000 1.550000 -0.730000
						CHANNELS 3 Zrotation Yrotation Xrotation
						JOINT RightForeArm
						{
							OFFSET -5.450000 0.000000 0.000000
							CHANNELS 3 Zrotation Yrotation Xrotation
							JOINT RightHand
							{
								OFFSET -3.450000 0.000000 0.000000
								CHANNELS 3 Zrotation Yrotation Xrotation
								JOINT RightHandIndex1
								{
									OFFSET -0.750000 0.000000 0.000000
									CHANNELS 3 Zrotation Yrotation Xrotation
									End Site
									{
										OFFSET 0.000000 0.000000 0.000000
									}
								}
							}
						}
					}
				}
			}
		}
	}
}
MOTION
Frames: 12
Frame Time: 0.016667
0.107930 17.723340 -10.798150 -8.440597 -2.352327 10.027594 -15.600809 13.240881 3.092933 27.925092 -0.679715 -19.477606 -5.086837 8.749188 20.087189 -0.067126 5.978321 2.299930 -0.146710 -0.260590 -0.059410 17.949245 -9.904787 2.713250 -29.677500 -0.852467 -26.041213 8.922586 -7.614659 17.793557 -0.021070 -4.301469 2.618025 -0.105020 0.307980 0.200010 -2.478065 -3.100222 -7.880137 2.135664 1.873559 13.024314 6.392384 2.918580 7.375217 2.069988 2.583094 -7.990956 1.564759 -2.302936 33.171578 -3.809850 3.449310 -2.110980 -1.273330 10.895703 4.635618 -56.887779 -5.736424 10.201688 -155.124484 -59.906009 131.622542 -3.695484 3.701338 0.168110 0.248470 -0.065120 0.007870 -1.999208 -12.457982 2.955875 53.662342 -14.374886 -23.592646 -28.986633 78.258224 -20.198313 1.589317 -1.406608 -0.180450 0.108590 0.190200 -0.063160 
0.074250 17.733650 -10.824840 -6.792030 -3.388277 10.732912 -15.526632 13.298962 3.030631 26.373518 -0.986909 -19.088919 -5.485608 8.400732 19.013198 -0.046454 5.736237 2.418203 -0.196890 -0.319820 -0.103030 17.983808 -9.966509 2.767941 -29.395556 -0.899491 -26.138268 8.240137 -7.068787 16.253635 0.023527 -4.109242 2.706855 -0.148080 0.333630 0.192530 -2.621052 -3.064581 -7.846702 3.179384 0.812535 12.802073 3.661231 1.930084 6.229409 2.884627 1.088609 -7.872853 -0.544170 -0.938907 31.593530 -4.498900 4.076440 -0.808810 -1.338792 14.124285 4.093410 -58.994465 -1.845909 7.499405 -153.399849 -61.745839 129.993130 -3.662324 3.709623 0.137850 0.261370 -0.097090 0.009570 -3.668154 -14.767989 3.417190 54.063792 -16.522791 -22.164426 -16.293056 87.191489 -15.159697 1.649362 -1.818541 -0.182430 0.092000 0.203020 -0.047120 
0.041040 17.722110 -10.846140 -5.076824 -4.337942 11.326465 -15.435551 13.438575 2.944725 24.481765 -1.267482 -18.452151 -5.424680 7.896229 18.005208 -0.041781 5.428790 2.559966 -0.220870 -0.344770 -0.152980 18.023076 -10.054531 2.812137 -29.052954 -1.019062 -26.253101 7.124083 -6.525082 15.075978 0.057561 -3.914169 2.801270 -0.171320 0.350690 0.180510 -2.793507 -3.141426 -7.846176 4.769070 -0.386029 13.099791 0.647928 0.883421 4.106093 3.422827 -1.276963 -7.218219 -4.561708 -0.232445 30.106800 -5.002610 3.164110 -0.199430 -0.720229 18.591172 3.198869 -60.624597 1.515164 5.002208 -153.186017 -64.045363 131.607280 -3.586803 3.706990 0.116800 0.256550 -0.119560 0.025620 -5.560109 -17.141342 3.701858 53.754210 -19.746157 -25.934853 120.899871 79.665557 113.806584 1.316833 1.138565 -0.175450 0.089980 0.208990 -0.019940 
0.002810 17.715760 -10.869250 -3.667309 -5.200653 11.849032 -15.325867 13.451419 2.846493 23.132553 -1.442679 -17.934454 -5.146567 7.450093 17.165413 -0.067487 5.185543 2.666052 -0.226640 -0.356950 -0.165110 18.106302 -10.134078 2.885173 -28.892260 -1.055403 -26.419411 6.857024 -6.253153 14.124443 0.068157 -3.820872 2.839397 -0.175580 0.361240 0.169680 -3.062495 -2.965160 -7.783465 6.824211 -1.231524 13.037792 -2.607832 0.120246 3.264342 3.954277 -2.957333 -6.968298 -7.030854 1.363761 29.069963 -4.847960 3.668230 -0.541980 -0.382637 21.846758 2.017897 -62.219553 2.943330 2.922202 -151.755422 -66.689003 131.606574 -3.526523 3.658503 0.123090 0.247370 -0.130400 0.026880 -7.240318 -19.463442 3.934770 53.394811 -21.710518 -20.462144 147.550415 76.622760 138.956947 1.505372 -1.580218 -0.185080 0.100960 0.218820 -0.017990 
-0.053030 17.712030 -10.878360 -2.275197 -5.592570 11.998341 -15.233540 13.480836 2.796791 22.055280 -1.526374 -16.859312 -5.106720 6.970002 15.471794 -0.078986 4.946931 2.779059 -0.231490 -0.365990 -0.180680 18.157909 -10.249195 2.872881 -28.427595 -1.108572 -25.581130 5.821396 -5.685789 12.373140 0.074078 -3.642747 2.917734 -0.181300 0.372380 0.156180 -3.265898 -2.816612 -7.726237 8.437221 -1.742763 12.749929 -5.172428 -0.402366 2.657100 4.395489 -4.176992 -6.972982 -9.120735 2.714653 29.220375 -4.434720 4.007040 -0.261660 -0.808606 23.324307 1.028852 -62.388154 2.535464 1.318394 -148.688740 -70.424463 130.709380 -3.492598 3.536394 0.134480 0.235040 -0.134370 0.037070 -7.901040 -20.278672 4.489933 53.248298 -23.508877 -17.264345 160.782165 71.448477 150.343995 1.555102 -2.083679 -0.195170 0.114860 0.221670 -0.011250 
-0.110010 17.718890 -10.886600 -1.320987 -5.910350 11.719194 -15.114171 13.425875 2.705997 21.248582 -1.504527 -15.631424 -4.783041 6.538015 14.161490 -0.089576 4.736604 2.870217 -0.216500 -0.339720 -0.177640 18.243902 -10.408386 2.907136 -28.029014 -1.150310 -24.623815 5.369630 -5.317460 10.667445 0.056644 -3.565112 2.952711 -0.171420 0.357660 0.153430 -3.561062 -2.402029 -7.681592 10.520309 -1.929461 12.403507 -8.272668 -0.629466 2.679638 5.124007 -4.603736 -6.827350 -9.991522 3.031571 30.559181 -4.922620 3.999290 -0.346480 -2.831842 23.101349 -0.381798 -60.904600 0.602949 0.064699 -144.603384 -74.534492 129.628319 -3.487202 3.338621 0.142400 0.221990 -0.115860 0.044500 -7.671867 -20.011342 5.499434 53.463615 -24.624718 -15.440360 162.573111 67.509141 149.243029 1.575843 -2.172862 -0.186510 0.120670 0.212100 -0.005400 
-0.176220 17.722220 -10.898390 -0.584748 -6.699672 11.686495 -14.982420 13.272520 2.605732 20.850626 -1.470616 -14.726565 -4.912506 6.424584 13.596256 -0.121197 4.703462 2.897368 -0.187360 -0.305830 -0.163200 18.383303 -10.490318 2.969647 -28.039901 -1.147865 -24.467810 5.434702 -5.165548 9.591389 0.049079 -3.582217 2.944545 -0.132540 0.368650 0.145190 -3.957855 -1.926913 -7.571401 12.942652 -2.637882 11.492432 -11.636093 -1.488436 3.365242 5.309982 -5.789892 -6.487042 -12.021117 4.709272 31.078551 -5.516770 4.754770 -0.470000 -4.889310 22.539319 -1.292723 -58.992823 -0.804795 -1.604606 -147.119915 -79.727264 137.534196 -3.503662 3.217916 0.136260 0.230390 -0.127010 0.052250 -6.405738 -19.157962 5.796952 52.540238 -21.848372 -12.163286 162.942463 65.099737 148.000659 1.624955 -2.216685 -0.197820 0.145490 0.209860 -0.008940 
-0.258370 17.723220 -10.920050 0.048687 -7.395881 11.537166 -14.892274 13.130704 2.521840 20.833660 -1.410021 -14.208656 -4.931628 6.362164 13.373228 -0.134659 4.678349 2.902547 -0.125680 -0.217500 -0.149440 18.495819 -10.495959 3.067278 -28.563829 -1.127276 -24.996514 6.040638 -5.236444 9.318776 0.016148 -3.655246 2.899559 -0.076920 0.359440 0.153110 -4.256493 -1.582110 -7.508620 14.569520 -3.521721 11.226355 -13.542198 -2.520445 3.950557 5.061888 -7.211801 -6.141302 -14.524084 6.751134 31.453316 -5.922220 5.316900 -1.567000 -7.290095 21.249370 -1.763477 -57.103517 -0.778983 -3.886860 -161.300752 -86.222921 156.750211 -3.546569 3.359657 0.133440 0.221020 -0.105690 0.077620 -3.785876 -17.289202 5.558186 50.644042 -17.020330 -8.863579 166.019280 63.555435 151.559576 1.709669 -2.262225 -0.177970 0.160220 0.187600 0.005880 
-0.340240 17.715530 -10.956090 0.638395 -7.958206 11.388810 -14.817094 13.021436 2.472131 20.952671 -1.406037 -14.325593 -4.884226 6.391099 13.773892 -0.153602 4.674617 2.889612 -0.064490 -0.135020 -0.127640 18.598098 -10.539054 3.120831 -29.221085 -1.244735 -26.410262 6.450660 -5.646771 10.988487 -0.000569 -3.765786 2.835387 -0.022160 0.345010 0.150840 -4.512084 -1.273774 -7.462340 15.961758 -4.290501 11.673487 -15.244260 -3.372194 4.312628 4.695222 -8.540776 -5.757012 -17.001573 8.426693 31.701435 -6.072120 5.366030 -2.527340 -9.629118 19.534150 -2.483753 -54.705576 -1.977466 -7.644406 51.799591 -88.262705 -48.726964 -3.383015 2.166254 0.123920 0.207690 -0.093750 0.095010 -0.960544 -15.053413 5.516653 49.593022 -12.498695 -6.015289 167.491180 62.137086 152.617059 1.782843 -2.259691 -0.159590 0.173810 0.164860 0.016510 
-0.433190 17.698150 -11.025860 0.976145 -8.217088 10.878340 -14.781035 12.938018 2.477904 21.681658 -1.422124 -14.930924 -4.971050 6.613944 14.823628 -0.155672 4.752692 2.827787 0.018160 -0.014730 -0.119030 18.666300 -10.544231 3.155791 -29.653778 -1.384868 -28.302018 7.149590 -6.393632 14.108952 -0.029709 -3.964136 2.740960 0.048840 0.324510 0.146050 -4.660850 -1.121805 -7.483185 16.546328 -5.060294 13.021776 -15.898121 -4.057338 5.210926 4.061003 -9.491128 -5.646018 -19.256264 9.698960 32.707569 -4.816830 4.342290 -3.550770 -11.842963 16.782705 -2.866788 -52.528094 -4.351836 -8.145749 58.384341 -80.806131 -46.166542 -3.287309 1.815636 0.112730 0.180140 -0.071530 0.128320 2.419471 -12.040018 5.299578 47.503342 -7.966082 -3.687101 168.433704 61.158541 152.849732 1.852347 -2.235094 -0.125270 0.186430 0.129120 0.044110 
-0.534420 17.661160 -11.106230 1.224223 -8.399076 10.581257 -14.769602 12.787729 2.536973 22.880173 -1.490665 -16.286952 -5.476416 7.173904 16.739151 -0.184356 5.017885 2.694923 0.081990 0.065950 -0.091940 18.733599 -10.474840 3.213122 -30.150998 -1.406254 -30.673174 7.800566 -7.412083 18.237529 -0.066382 -4.298201 2.598271 0.114130 0.313540 0.131330 -4.780875 -1.006917 -7.553231 16.983807 -5.676856 14.645666 -16.453089 -4.516413 5.761518 3.352576 -10.224760 -5.405820 -21.220908 10.616144 33.310448 -3.901470 3.454160 -4.998460 -13.906355 13.961885 -3.298024 -49.108855 -7.293024 -6.996934 58.676327 -71.900068 -39.158292 -3.382915 2.030906 0.122960 0.159230 -0.060720 0.140880 5.768149 -9.192384 4.875250 45.921764 -4.012906 -3.051865 169.483822 62.862022 154.963499 1.868930 -2.151958 -0.125400 0.224490 0.113800 0.045790 
-0.631720 17.626250 -11.206120 1.427999 -8.640161 9.747974 -14.787790 12.663398 2.655296 24.208360 -1.616976 -17.745190 -5.982528 7.862914 19.110708 -0.183778 5.355657 2.529305 0.151070 0.155460 -0.040880 18.763182 -10.349782 3.298921 -30.544096 -1.380715 -32.909253 8.081057 -8.417049 22.458811 -0.141366 -4.688525 2.436867 0.166500 0.271330 0.124890 -4.799850 -1.046009 -7.734262 16.664211 -6.493732 17.771563 -16.804366 -5.004671 6.218745 3.028194 -10.287615 -5.493060 -21.979591 11.274105 34.271668 -3.348900 3.299630 -6.992400 -17.232972 9.404741 -3.481082 -43.224228 -10.060132 -6.117635 62.596690 -62.606414 -35.788894 -3.490836 2.152895 0.152250 0.121820 -0.015800 0.147690 9.781974 -5.210557 4.875319 43.007935 -1.305298 -3.467232 174.246206 64.580952 162.374900 1.906771 -2.089625 -0.111560 0.247590 0.083390 0.040760 
